<svg width="45" height="40" viewBox="0 0 45 40" fill="none" xmlns="http://www.w3.org/2000/svg">
<path d="M22.5 0.292969C10.125 0.292969 0 9.20438 0 20.1799C0 30.1035 8.23499 38.3401 18.99 39.8287V25.9356H13.275V20.1799H18.99V15.7937C18.99 10.812 22.3425 8.07309 27.495 8.07309C29.9475 8.07309 32.5125 8.45019 32.5125 8.45019V13.3525H29.6775C26.8875 13.3525 26.01 14.8807 26.01 16.4486V20.1799H32.265L31.2525 25.9356H26.01V39.8287C31.312 39.0901 36.1399 36.7038 39.6223 33.1006C43.1047 29.4974 45.012 24.9148 44.9999 20.1799C44.9999 9.20438 34.875 0.292969 22.5 0.292969Z" fill="#CACACA"/>
</svg>
