<svg width="45" height="40" viewBox="0 0 45 40" fill="none" xmlns="http://www.w3.org/2000/svg">
<g clip-path="url(#clip0_57972_1444)">
<path d="M18.1172 20.061C18.1172 22.1508 20.0453 23.8447 22.4238 23.8447C24.8024 23.8447 26.7305 22.1508 26.7305 20.061C26.7305 17.9713 24.8024 16.2773 22.4238 16.2773C20.0453 16.2773 18.1172 17.9713 18.1172 20.061Z" fill="#CACACA"/>
<path d="M12.3521 13.3661C12.5591 12.8733 12.8894 12.4271 13.3185 12.061C13.7353 11.6839 14.2428 11.3937 14.8041 11.2119C15.2593 11.0565 15.9432 10.8716 17.2029 10.8212C18.5655 10.7666 18.9741 10.7549 22.4238 10.7549C25.8738 10.7549 26.2824 10.7663 27.6447 10.8209C28.9044 10.8716 29.5886 11.0565 30.0435 11.2119C30.6048 11.3937 31.1126 11.6839 31.5291 12.061C31.9582 12.4271 32.2885 12.873 32.4959 13.3661C32.6727 13.7661 32.8831 14.3672 32.9405 15.4739C33.0026 16.6708 33.016 17.0298 33.016 20.0609C33.016 23.0917 33.0026 23.4506 32.9405 24.6478C32.8831 25.7545 32.6727 26.3554 32.4959 26.7553C32.2885 27.2485 31.9586 27.6943 31.5294 28.0605C31.1126 28.4376 30.6052 28.7277 30.0438 28.9096C29.5886 29.0652 28.9044 29.2502 27.6447 29.3005C26.2824 29.3551 25.8742 29.3666 22.4241 29.3666C18.9737 29.3666 18.5652 29.3551 17.2032 29.3005C15.9436 29.2502 15.2593 29.0652 14.8041 28.9096C13.6773 28.5277 12.7867 27.7453 12.3521 26.7553C12.1753 26.3554 11.9648 25.7545 11.9071 24.6478C11.845 23.4506 11.8319 23.0917 11.8319 20.0609C11.8319 17.0298 11.845 16.6708 11.9071 15.4739C11.9645 14.3672 12.1749 13.7661 12.3521 13.3661V13.3661ZM22.4238 25.8893C26.0881 25.8893 29.0585 23.2799 29.0585 20.0606C29.0585 16.8412 26.0881 14.2318 22.4238 14.2318C18.7599 14.2318 15.7894 16.8412 15.7894 20.0606C15.7894 23.2799 18.7599 25.8893 22.4238 25.8893ZM15.5271 15.3635C16.3834 15.3635 17.0776 14.7536 17.0776 14.0014C17.0776 13.2491 16.3834 12.6392 15.5271 12.6392C14.6709 12.6392 13.9767 13.2491 13.9767 14.0014C13.977 14.7536 14.6709 15.3635 15.5271 15.3635Z" fill="#CACACA"/>
<path d="M22.6204 0.292969C34.9364 0.292969 44.9238 9.06768 44.9238 19.8881C44.9238 30.7086 34.9364 39.4833 22.6204 39.4833C10.3044 39.4833 0.316958 30.7086 0.316958 19.8881C0.316958 9.06768 10.3044 0.292969 22.6204 0.292969ZM9.8906 24.5271C9.95253 25.7249 10.1693 26.5426 10.4858 27.2584C11.1512 28.7699 12.5111 29.9647 14.2314 30.5492C15.0458 30.8273 15.9769 31.0175 17.3399 31.0722C18.7057 31.1269 19.1419 31.14 22.6201 31.14C26.0985 31.14 26.5345 31.1269 27.9005 31.0722C29.2635 31.0175 30.1946 30.8273 31.009 30.5492C31.8639 30.2667 32.6378 29.8238 33.2776 29.2513C33.929 28.6894 34.433 28.0092 34.7546 27.2584C35.0711 26.5429 35.2879 25.7249 35.3498 24.5274C35.4128 23.3272 35.4274 22.9439 35.4274 19.8881C35.4274 16.8324 35.4128 16.4491 35.3502 15.2492C35.2883 14.0514 35.0718 13.2336 34.7553 12.5178C34.4337 11.767 33.9293 11.0868 33.2776 10.525C32.6382 9.95241 31.8639 9.5096 31.0094 9.22704C30.1946 8.94897 29.2638 8.75881 27.9005 8.70409C26.5348 8.64938 26.0985 8.63622 22.6204 8.63622C19.1423 8.63622 18.706 8.64938 17.3403 8.70439C15.9769 8.75881 15.0462 8.94897 14.2314 9.22674C13.3769 9.5093 12.6026 9.95241 11.9628 10.525C11.3114 11.0871 10.8071 11.767 10.4858 12.5178C10.169 13.2336 9.95253 14.0514 9.89026 15.2492C9.82798 16.4491 9.81334 16.8324 9.81334 19.8881C9.81334 22.9439 9.82798 23.3272 9.8906 24.5271Z" fill="#CACACA"/>
</g>
<defs>
<clipPath id="clip0_57972_1444">
<rect width="45" height="39.5357" fill="white" transform="matrix(-1 0 0 1 45 0.292969)"/>
</clipPath>
</defs>
</svg>
