<svg width="45" height="40" viewBox="0 0 45 40" fill="none" xmlns="http://www.w3.org/2000/svg">
<path d="M22.5 0.292969C10.074 0.292969 0 9.14331 0 20.0608C0 30.9783 10.074 39.8287 22.5 39.8287C34.926 39.8287 45 30.9783 45 20.0608C45 9.14331 34.926 0.292969 22.5 0.292969ZM33.9132 22.1988C34.9619 23.0987 36.0714 23.9456 37.0128 24.9386C37.4299 25.3778 37.823 25.832 38.1222 26.3429C38.5495 27.0713 38.1637 27.8701 37.4216 27.9134L32.812 27.9126C31.6215 27.9991 30.6741 27.5773 29.8754 26.8622C29.2378 26.2923 28.6462 25.6836 28.0321 25.0943C27.7812 24.8524 27.517 24.6247 27.2021 24.4455C26.5737 24.0864 26.0277 24.1964 25.6677 24.7732C25.3008 25.36 25.217 26.0104 25.182 26.6636C25.1319 27.6185 24.8041 27.8681 23.7135 27.913C21.3832 28.0088 19.1721 27.6982 17.117 26.666C15.3041 25.7556 13.901 24.4706 12.6783 23.0158C10.2973 20.1797 8.47381 17.067 6.8354 13.8649C6.46665 13.1438 6.73642 12.7579 7.64194 12.743C9.14639 12.7175 10.6508 12.7207 12.1553 12.7418C12.7676 12.7503 13.1727 13.0581 13.4079 13.5656C14.2209 15.323 15.2176 16.995 16.4665 18.5457C16.7994 18.9587 17.1391 19.3704 17.623 19.662C18.157 19.984 18.5639 19.8776 18.8158 19.3538C18.9769 19.021 19.0464 18.665 19.0814 18.3083C19.2011 17.0864 19.2153 15.865 19.0082 14.648C18.8793 13.8864 18.3918 13.3946 17.5277 13.2506C17.0876 13.1774 17.152 13.0342 17.3661 12.8134C17.7376 12.4315 18.0856 12.1953 18.7812 12.1953L23.9893 12.1945C24.8101 12.3361 24.9942 12.6597 25.1056 13.3861L25.1102 18.4709C25.1006 18.752 25.2709 19.5852 25.8454 19.7692C26.3058 19.9027 26.6096 19.5783 26.8849 19.3223C28.1339 18.1579 29.0237 16.7835 29.8206 15.361C30.1723 14.7337 30.4757 14.0846 30.7703 13.4342C30.9895 12.9533 31.3301 12.7167 31.9479 12.7248L36.9631 12.73C37.1108 12.73 37.2609 12.7312 37.4073 12.7535C38.2525 12.8805 38.4841 13.2 38.2226 13.9244C37.811 15.0625 37.0114 16.0106 36.2297 16.9611C35.3919 17.9787 34.4983 18.9607 33.6687 19.9828C32.9064 20.9171 32.9667 21.3874 33.9132 22.1988Z" fill="#CACACA"/>
</svg>
